<svg xmlns="http://www.w3.org/2000/svg" width="256" height="256" version="1.2" viewBox="0 0 980 980"><path d="M490 977.8C219.9 977.8 1.7 759.6 1.7 489.6S219.9 1.3 490 1.3c270 0 488.2 218.3 488.2 488.3S760 977.8 490 977.8z" style="fill:#000"/><path d="m631.6 568 83.8 75.7c-45.2 56.5-114.3 87.7-200 87.7-117.6 0-211.3-64.4-243.9-163.4h-73.7v-65.1h61.8v-26.6h-61.8v-65.1h73.7c32.6-99 126.3-163.5 243.9-163.5 85.7 0 154.8 31.3 200 87.7l-83.8 75.8c-29.2-35.2-65.1-54.5-109.6-54.5-47.2 0-85.7 19.9-107.6 54.5h142.2v65.1H393.1c-.6 4.6-.6 8.6-.6 13.3 0 4.6 0 8.6.6 13.3h163.5V568H414.4c21.9 34.5 60.4 54.4 107.6 54.4 44.5 0 80.4-19.2 109.6-54.4z" style="fill:#fff"/></svg>