<svg xmlns="http://www.w3.org/2000/svg" width="256" height="256" version="1.2" viewBox="0 0 980 980"><path d="M489 977.8C219 977.8.8 759.6.8 489.6S219 1.3 489 1.3c270.1 0 488.3 218.3 488.3 488.3S759.1 977.8 489 977.8z" style="fill:#000"/><path d="M535.9 728.1v73.7h-79.8v-71.1c-66.4-4.6-129.5-23.9-168-50.4l43.1-97.1c41.2 27.3 99.7 45.9 153.5 45.9 54.5 0 75.8-15.3 75.8-37.9 0-73.7-264.5-19.9-264.5-192.7 0-73 52.5-134.8 160.1-148.1v-73.1h79.8v71.8c49.1 3.9 97.6 17.2 134.8 39.2l-40.5 97.6C585.7 362 541.9 350 501.3 350c-55.1 0-75.1 18.6-75.1 41.9 0 71.1 263.8 17.9 263.8 189.4 0 70.4-50.5 131.5-154.1 146.8z" style="fill:#fff"/></svg>