<svg version="1.2" xmlns="http://www.w3.org/2000/svg" viewBox="0 0 509 509" width="509" height="509">
	<title>Polygon MATIC Icon-svg</title>
	<defs>
		<clipPath clipPathUnits="userSpaceOnUse" id="cp1">
			<path d="m86.5 110.3h333.1v291.9h-333.1z"/>
		</clipPath>
	</defs>
	<style>
		.s0 { fill: #8247e5 } 
		.s1 { fill: #ffffff } 
	</style>
	<path id="Layer" class="s0" d="m254.8 0.4c140.4 0 254.2 113.8 254.2 254.2 0 140.4-113.8 254.1-254.1 254.1-140.4 0-254.1-113.8-254.1-254.1-0.1-140.4 113.7-254.2 254-254.2z"/>
	<g id="Layer">
		<g id="Clip-Path" clip-path="url(#cp1)">
			<g id="Layer">
				<path id="Layer" class="s1" d="m338.1 199.2c-6.1-3.5-13.9-3.5-20.8 0l-48.6 28.8-33 18.3-47.7 28.7c-6.1 3.5-13.9 3.5-20.8 0l-37.3-22.7c-6.1-3.5-10.4-10.5-10.4-18.3v-43.6c0-7 3.5-13.9 10.4-18.3l37.3-21.8c6.1-3.5 13.9-3.5 20.8 0l37.3 22.7c6.1 3.5 10.4 10.5 10.4 18.3v28.8l33-19.2v-29.6c0-7-3.5-13.9-10.4-18.3l-69.4-41c-6.1-3.5-13.9-3.5-20.8 0l-71.1 41.9c-6.9 3.5-10.4 10.5-10.4 17.4v81.9c0 7 3.5 13.9 10.4 18.3l70.3 41c6.1 3.5 13.9 3.5 20.8 0l47.7-27.9 33-19.2 47.7-27.9c6.1-3.5 13.9-3.5 20.8 0l37.3 21.8c6.1 3.5 10.4 10.5 10.4 18.3v43.6c0 7-3.5 13.9-10.4 18.3l-36.4 21.8c-6.1 3.5-13.9 3.5-20.8 0l-37.4-21.8c-6.1-3.5-10.4-10.5-10.4-18.3v-27.9l-33 19.2v28.8c0 7 3.5 13.9 10.4 18.3l70.3 41c6.1 3.5 13.9 3.5 20.8 0l70.3-41c6.1-3.5 10.4-10.5 10.4-18.3v-82.8c0-7-3.5-13.9-10.4-18.3z"/>
			</g>
		</g>
	</g>
</svg>